<?xml version="1.0" encoding="UTF-8"?>
<svg id="Layer_1" data-name="Layer 1" xmlns="http://www.w3.org/2000/svg" viewBox="0 0 1105.36 618.79">
  <defs>
    <style>
      .cls-1 {
        fill: #8e509f;
      }

      .cls-2 {
        fill: #c094c4;
      }
    </style>
  </defs>
  <g>
    <path class="cls-1" d="M1085.25,12.62c45.73,43.44,4.69,143.04-36.15,178.47-19.79,17.17-54.88,35.91-78.4,16.01-4.87,24.19-6.5,30.83-12.45,57.86-7.95,36.05-9.18,51.91-19.64,62.44-3.86,3.89-13.03,8.79-18.46,9.52-29.21,3.9-22.61-21.26-19.13-40.11,4.56-24.7,12.58-48.88,16.7-73.71-13.4,11.11-29.77,22.8-47.95,14.48-20.17-9.23-17.9-36.63-14.7-54.66,4.25-23.91,12.79-48.35,20.68-71.24-4.94-.74-10.49-.82-14.48-4.46-.86.02-5.14,13.96-5.8,16.16-12.47,41.48-33.77,145.17-90.29,146.3-14.24.29-19.81-5.4-23.18-18.24-.2-.75.33-3.32-1.61-2.35-1.13.57-6.41,10.63-8.1,12.89-16.16,21.68-47.98,42.67-70.86,17.09-15.07-16.84-9.52-36.21-6.32-56.3,5.04-31.62,15.29-66.15,22.71-97.26,2.62-10.99,2.36-19.73,14.67-23.29,5.22-1.51,21.84-5.29,26.54-5.52,5.74-.27,10.6,3.49,9.27,9.85-3.16,16.41-10.92,37.68-15.24,53.83-6.45,24.13-12.81,49.65-11.16,67.23.13,1.35.56,5.81,3.95,6.34,6.9.79,10.5-4.31,14.55-9.84,18.26-24.92,27.94-98.81,37.94-130.92,1.05-3.37,3.25-7.7,6.33-9.66,3.73-2.38,16.56-6.2,21.12-6.86,23.44-3.39,17.45,15.54,14.57,30.56-4.43,23.12-11.29,45.87-16.03,68.9-1.3,6.31-6.38,27.43-3,31.99,4.54,6.13,14.2-10.12,15.88-13.12,17.45-31.18,26.12-66.48,36.61-100.38.64-3.18-2.06-4.29-3.85-6.07-13.34-13.22,3.67-50.66,28.37-51.32,8.69-.23,16.73,6.09,18.2,14.75,1.58,9.32-3.06,13.05,9.74,14.24,11.53,1.07,34.41-4.66,38.03,10.93,3.3,14.2-11.01,43.71-15.83,58.25-2.82,8.5-14.1,40.89-8.73,47.27,5.38,2.12,13.76-2.36,18-6.02,7.84-6.79,11.17-16.66,13.51-26.45,9.74-40.69,12.64-54.97,21.61-93.3,3.6-15.37,4.43-30.95,19.8-35.14,2.88-.79,13.73-3.43,18-4.1,9.36-1.46,8.38,8.29,7.48,12.6,21.24-24.4,59.2-44.11,87.08-17.63ZM1032.39,59.48c-22.54,3.84-37.99,48.51-43.22,67.68-4.51,16.54-15.32,55.74,16.48,44.45,29.61-10.51,51.39-71.07,45.75-99.66-1.92-9.72-9.38-14.12-19.01-12.48Z"/>
    <path class="cls-1" d="M265.97,205.53c-13.42,13.42-38.08,26.24-56.57,16.25-8.66-4.68-10.25-11.18-9.2-20.68,1.78-16.15,24.43-27.22,32.47-41.14,6.06-10.5,7.93-26.55,5.47-38.4-4.73-22.79-33.88-19.19-50.4-12.93-49.58,18.79-91.35,88.36-52.58,135.12,21.98,26.52,56.38,35.33,83.52,55.17,133.28,97.42-21.76,285.83-151.86,254.28-85.41-20.71-86.81-136.15-16.29-177.46,16.18-9.47,52.13-21.18,64.18-.58,11.19,19.12-12.27,26.99-22.75,35.61-39.38,32.42-26.36,92.76,30.77,87.31,34.38-3.28,69.28-36.3,78.25-68.98,10.42-38,3.66-57.12-25.86-81.28-49.98-40.9-116.58-46.61-121.1-126.41-4.96-87.61,110.23-188.87,196.32-160.05,62.7,20.99,55.43,104.38,15.65,144.16Z"/>
    <path class="cls-1" d="M355.68,514.12c-14.32,12.29-19.82,21.42-16.59,34.46,4.06,16.36,17,34,10.4,51.29-9.77,25.58-48.46,25.71-55.58-2.6-6.21-24.7,18.47-52.67,12.21-71.12-5.5-16.22-25.89-5.61-34.36-21.92-18.78-36.19,36.45-66.75,61.54-77.57,88.39-38.1,176.99-61.51,269.54-88.24,79.09-22.85,192.01-52.59,274.22-66.34,12.52-2.3,11.71,19.08,2.59,24.2-9.67,5.44-50.77,16.44-63.57,20.13-119.13,34.28-211.55,69.87-309.55,117.47-34.66,16.83-68.36,35.7-102.87,52.81-12.83,6.36-36.94,17.96-47.99,27.44Z"/>
    <path class="cls-1" d="M591.98,177.38c-16.73,3.76-19.19,4.27-42.59,8.97-5.47,1.1-11.62-3.75-12.12-9.65-.37-4.38,4.77-31.86,6.93-35.59,3.65-6.3,20.77-8.88,28.19-10.77,22.27-5.68,44.82-10.66,67.23-15.78,7.83-2.17,12.03,4.86,13.65,11.1,5.92,22.86-19.48,60.96-31.46,80.08-12.66,20.19-29.47,43.7-41.2,64.51,6.98-2.26,5.44-1.77,8.79-2.99,9.77-3.54,31.63-12.66,40.33-9.13,12.85,5.21,3.82,38.17-5.24,45.2-2.58,2-6.45,3.3-9.53,4.46-26.53,9.98-78.74,23.81-83.85,24.1-24.25.87-15.6-33.47-9.22-47.23,15.13-32.61,47.23-67.53,65.96-99.9.61-1.06,4.14-7.38,4.14-7.38Z"/>
    <path class="cls-1" d="M457.58,214.78c-16.73,3.84-19.19,4.36-42.59,9.16-5.47,1.12-11.62-3.82-12.12-9.85-.37-4.47,4.77-32.52,6.93-36.32,3.65-6.43,20.77-9.06,28.19-10.99,22.27-5.8,44.82-10.88,67.23-16.11,6.49-1.89,12.03,4.96,13.65,11.32,5.92,23.33-19.48,62.22-31.46,81.73-12.66,20.61-29.47,44.6-41.2,65.83,6.98-2.31,5.44-1.81,8.79-3.05,9.77-3.61,31.63-12.92,40.33-9.32,12.85,5.32,3.82,38.95-5.24,46.13-2.58,2.05-6.45,3.37-9.53,4.55-26.53,10.18-78.74,24.3-83.85,24.6-24.25.89-15.6-34.16-9.22-48.2,15.13-33.29,47.23-68.92,65.96-101.95.61-1.08,4.14-7.53,4.14-7.53Z"/>
    <path class="cls-1" d="M379.7,188.37c4.14,4,0,13.26-1.5,20.8-11.04,45.21-19.77,87.29-26.88,133.3,25.32,8.65,10.03,43.37-5.77,53.92-16.92,11.3-37.78,5.62-44.84-14.6-5.54-15.87-2.06-29.77.85-45.74,7.21-39.68,16.69-87.27,26.95-125.95,1.78-6.7,2.33-12.04,9.15-14.65,4.46-1.71,20.86-5.42,25.04-6.37,7.78-1.77,14.78-2.85,17-.7Z"/>
    <path class="cls-1" d="M392.82,107.55c32.89,31.96-32.09,91.7-56.63,50.13-19.57-33.15,29.31-76.68,56.63-50.13Z"/>
    <path class="cls-1" d="M1021.82,249.76c17.94-.28,57.19,1.51,63.96,22.3,2.96,9.1.22,25.99-10.46,28.68-23.14,5.85-27-13.22-40.8-20.43-8.82-4.6-23.83-4.96-38.92-.09-5.69,1.83-14.05,3.71-18.94,1.28-7.34-3.93-4.73-24.71,12.91-28.28,5.04-1.42,26.07-3.37,32.25-3.47Z"/>
  </g>
  <g>
    <path class="cls-2" d="M368.66,197.35l-26.48,6.62h0c-1.92.52-3.49,2.05-3.95,4.12-2.81,12.66-5.89,25.96-8.86,38.81-15.82,68.37-25.44,112.14-19.64,127.88l-.03.03c2.29,5.43,3.44,9.15,9.62,9.66,5.83.02,7.29-4.44,4.87-6.73-1.47-1.65-2.5-3.14-3.42-5.05-.12-.41-.28-.81-.5-1.19-.08-.15-.17-.32-.25-.52,0-.02-.02-.05-.03-.07-1.28-3.14-2.25-12.71,2.9-41.85,4.01-22.65,10.72-51.65,17.2-79.69,2.47-10.67,5.01-21.64,7.41-32.32,2.17-6.95,11.59-13.44,22-18,.82-.65.18-1.95-.83-1.71Z"/>
    <path class="cls-2" d="M474.41,206.84c-4.32-3.92-8.39-1.59-8.12,1.73-.01,3.42-.58,5.85-2.17,9.72-.04.1-.08.2-.13.3-.03.07-.06.14-.09.21-5,11.41-16.11,26.88-27.83,43.2-20.41,28.42-43.52,60.61-46.82,87.55h0c-.67,5.86-1.5,9.66,3.62,13.14,5.07,2.89,8.53-.29,7.54-3.47-.61-2.76-.69-4.93-.31-7.92,0-.06.03-.11.04-.17.06-.52.14-1.05.22-1.57.12-.75.27-1.55.44-2.42h-.02c4.61-23.54,25.59-52.77,44.23-78.73,13.5-18.8,25.17-35.04,30.11-47.95.1-.26.17-.52.23-.78,1.81-5.13,3.11-8.55-.93-12.85Z"/>
    <path class="cls-2" d="M610.74,169.86c-4.39-3.81-8.54-1.54-8.27,1.68-.02,3.86-.79,6.41-3.07,11.37h0c-5.39,10.89-16.18,25.25-27.56,40.36-20.8,27.65-44.37,58.96-47.73,85.24l-.11.02c-.68,5.69-1.53,9.39,3.69,12.77,5.16,2.8,8.69-.28,7.68-3.37-.87-3.77-.7-6.42.39-11.74l-.12.02c4.7-22.8,26.03-51.15,44.98-76.33,13.76-18.28,25.64-34.07,30.68-46.65.02-.05.03-.1.05-.15h.03c1.97-5.41,3.65-8.84-.68-13.23Z"/>
    <path class="cls-2" d="M719.69,104.31l-26.48,6.62h0c-1.91.52-3.49,2.05-3.95,4.12-5.37,24.18-9.42,40.51-12.68,53.64-6.08,24.51-9.74,39.3-15,76h0c-.67,5.75-1.5,9.49,3.61,12.91,5.05,2.83,8.5-.28,7.52-3.4-.58-2.59-.68-4.66-.36-7.41.04-.18.1-.35.13-.53.15-1.02.29-2.02.43-3,.06-.3.12-.6.18-.92h-.04c4.88-33.32,8.45-47.72,14.22-70.99,2.96-11.95,6.59-26.57,11.26-47.31,2.17-6.95,11.59-13.44,22-18.01.82-.65.18-1.95-.83-1.71Z"/>
    <path class="cls-2" d="M934.6,221.9c-6.06,1.09-6.67,4.86-8.19,10.42l.04.03c-4.89,21.78-6.28,27.65-8.58,37.35-1.79,7.57-4.03,16.99-8.79,37.59-.03.15-.06.3-.08.45h0c-.67,5.75-1.5,9.49,3.61,12.91,5.05,2.83,8.5-.28,7.51-3.4-.57-2.57-.68-4.62-.37-7.33.01-.05.04-.1.05-.15,4.75-20.57,6.98-29.97,8.77-37.52,2.15-9.07,3.51-14.81,7.65-33.2l.1.07c1.01-5.37,1.84-7.89,4.06-11.06,2.08-2.48,0-6.72-5.78-6.15Z"/>
    <path class="cls-2" d="M508.39,165.58c-.73-2.95-3.7-4.75-6.65-4.03l-78.73,19.35c-2.38.58-4.01,2.64-4.17,4.95h0s-5.22,26.79-5.22,26.79c-.19,1.03,1.15,1.59,1.75.74,4.29-11.37,11.01-22.17,18.42-23.78h-.05s70.64-17.38,70.64-17.38c2.95-.73,4.75-3.7,4.03-6.65Z"/>
    <path class="cls-2" d="M487.3,303.31l-19.78,7.1-18.25,6.46c-.54.19-1.04.46-1.48.79-4.94,2.77-6.98,3.77-8.57,9.57-1.64,5.76,1.74,4.36,2.72,4.02l24.13-8.66,13.88-4.91c.17-.06.34-.13.51-.21l.12.03c5.29-2.98,7.8-4.19,9.44-10.17,1.64-5.76-1.74-4.36-2.72-4.02Z"/>
    <path class="cls-2" d="M913.99,80.42c-2.55-4.86-4.44-5.52-9.07-5.63l-.02.02c-.38-.04-.76-.05-1.15-.01-7.17.68-14.2.62-20.98-.15-5.22-1.25-7.69-2.22-10.72-4.57-2.37-2.2-6.72-.34-6.42,5.47.79,6.11,4.72,7.42,10.2,9.21h0c.2.05.41.1.63.13,5.62.93,11.42,1.39,17.33,1.39,3.17,0,6.37-.14,9.59-.41l9.17.12c.83-.06,3.95-.91,1.45-5.57Z"/>
    <path class="cls-2" d="M621.69,263.77l-19.77,7.1-18.26,6.46c-.54.19-1.04.46-1.48.79-4.94,2.77-6.98,3.77-8.57,9.57-1.64,5.76,1.74,4.36,2.72,4.02l24.14-8.66,13.87-4.91c.17-.06.34-.13.51-.21l.12.03c5.29-2.98,7.8-4.19,9.44-10.17,1.64-5.76-1.74-4.36-2.72-4.02Z"/>
    <path class="cls-2" d="M893.81,102.04c-5.91,1.87-7.02,4.43-9.8,9.82l.04.12c-.06.15-.12.3-.17.46-1.06,3.28-2.35,7.1-3.84,11.53-12.52,37.12-23.22,71.8-17.37,88.66,1.02,3.63,2.43,6.13,6.99,7.26,5.75.96,7.91-3.21,5.89-5.86-1.8-2.82-2.64-5.12-3.39-9.05-1.93-16.55,9.97-52.73,17.4-74.82l.14.47,8.23-26.03c.3-1,1.58-4.43-4.12-2.57Z"/>
    <path class="cls-2" d="M642.3,128.34c-.73-2.95-3.7-4.75-6.65-4.03l-78.73,19.35c-2.38.58-4.01,2.64-4.17,4.95h0s-5.22,26.79-5.22,26.79c-.19,1.03,1.15,1.59,1.75.74,4.29-11.37,11.01-22.17,18.42-23.78h-.05s70.64-17.38,70.64-17.38c2.95-.73,4.75-3.7,4.03-6.65Z"/>
    <path class="cls-2" d="M794.01,84.7l-21.55,5.51c-2.32.21-4.35,1.89-4.88,4.29-2,9.01-3.84,17.39-5.57,25.22-10.96,49.84-17.08,77.66-27.55,99.81-4.8,10.16-13.36,21.13-28.4,24.1-3.19.92-1.84,4.37.65,3.61,9.17-2.19,27.46-8.72,36.65-20.98l-.02-.02c.18-.25.35-.52.49-.81,11.35-23.49,17.59-51.86,28.92-103.36,1.39-6.34,2.87-13.05,4.44-20.15,2.24-6.14,9.31-11.96,17.65-15.51.69-.58.06-1.88-.84-1.71Z"/>
    <path class="cls-2" d="M989.06,26.31c-9.8,2.81-21.43,4.61-23.36,11.76h.01s-.02.07-.03.1c-6.04,22.31-11.05,45.75-15.47,66.42-7.05,33.01-13.73,64.24-21.53,74.85h-.01c-7.01,8.81-17.91,17.6-33.31,17.02-3.31.16-2.8,3.82-.2,3.66,9.43-.01,28.74-2.15,40.51-11.95l-.03-.03c.29-.23.56-.48.8-.78,9.85-11.78,16.33-42.09,24.53-80.48,4.32-20.21,9.21-43.08,15.04-64.79,2.04-5.13,6.62-10.04,14.06-14.18.6-.63-.18-1.86-1.02-1.6Z"/>
    <path class="cls-2" d="M846.55,98.1c-4.64-3.53-8.49-.84-7.94,2.44.22,2.65.06,4.73-.61,7.4-.02.06-.04.12-.06.18-.03.1-.44,1.51-1.17,3.95-.04.13-.09.26-.13.4h.01c-4.63,15.4-20.84,67.75-34.46,92l-.03-.02c-5.26,9.96-14.36,20.61-29.6,22.88-3.23.77-2.05,4.27.48,3.63,9.27-1.75,27.85-7.41,37.61-19.21h-.02c.16-.22.31-.44.45-.67,16.27-28.08,35.41-92.99,37.3-99.46h.02c1.44-5.72,2.77-9.38-1.86-13.51Z"/>
    <path class="cls-2" d="M1074.13,65.21c-.54-2.99-3.41-4.97-6.39-4.43-2.99.54-4.97,3.4-4.43,6.39,3.99,22-3.2,75.18-38.48,104.3,0,0-.01.01-.02.02-8.31,7.3-19.5,14.32-34.62,11.61-3.3-.3-3.3,3.4-.71,3.6,9.34,1.3,28.68,1.78,41.71-6.29h0c.22-.15.44-.29.65-.46,21.25-17.53,31.91-41.76,37.11-58.99,5.9-19.53,7.88-40.89,5.19-55.76Z"/>
    <path class="cls-2" d="M371.98,109.86c-6.96-4.14-18.45,5.89-22.76,10.34l.05.04s-.05.04-.07.07c-7.04,8.86-11.35,21.66-5.1,30.3,1.08,1.49,2.76,2.28,4.46,2.28,1.12,0,2.25-.34,3.22-1.04,2.46-1.78,3.01-5.22,1.23-7.68-2.26-3.12-.19-10.59,4.61-16.75,3.7-4.53,7.8-10.25,14.25-12.3,4.15-1.15,1.69-4.61.12-5.24Z"/>
    <path class="cls-2" d="M840.36,77.3c-2.3,0-4.45-1.46-5.23-3.76-1.44-4.25-.19-10.63,3.18-16.24,3.67-6.12,9-10.03,15-11.02,3-.49,5.83,1.54,6.32,4.53.49,3-1.54,5.83-4.53,6.32-3.44.57-5.83,3.5-6.96,5.2-2.32,3.51-2.78,6.91-2.58,7.73.97,2.88-.58,5.98-3.46,6.95-.58.2-1.17.29-1.75.29Z"/>
    <path class="cls-2" d="M1077.71,18.89c-12.91-12.39-29.99-8.95-42.04-3.88-.29.12-.57.27-.83.44l-.06-.11c-18.9,11.1-31.89,22.4-37.73,38.12-.78,1.02.6,2.28,1.54,1.41,10.87-16.45,21.44-22.65,41.06-29.58v-.02c.09-.03.18-.06.28-.1,13.29-5.59,23.16-5.04,30.16,1.68,1.07,1.02,2.44,1.53,3.81,1.53,1.45,0,2.89-.57,3.97-1.69,2.1-2.19,2.03-5.67-.16-7.78Z"/>
    <path class="cls-2" d="M1072.01,267.32c-10.92-6.41-21.87-8.83-32.85-9.27-.97-.04-1.27,1.32-.36,1.66,18.72,4.57,23.84,19.76,31.15,18.69,6.8-1.6,6.23-8.49,2.06-11.08Z"/>
    <path class="cls-2" d="M284.72,482.11c7.5-51.92,327.55-146.11,551.49-193.2,1.34-.28,1.81,1.7.49,2.05-240.61,64.03-489.02,149.07-519.2,194.79-9.38,16.35-35.76,13.62-32.77-3.64Z"/>
    <path class="cls-2" d="M306.99,569.65c3.22-8.29,11.34-29.09,8.54-45.37-.22-1.29,1.56-1.86,2.09-.67,4.56,10.16-3.17,34.22,3.23,46.97,7.06,14.82-7.04,27.5-12.25,21.24-5.17-6-4.86-13.65-1.62-22.17Z"/>
    <path class="cls-2" d="M62.53,383.49c1.33-1.34-.4-3.46-1.97-2.41-36.2,23.98-53.87,56.85-48.22,100.92,1.96,16.4,22.55,16.65,18.83,4.85-12.2-39.48.5-72.19,31.36-103.35Z"/>
    <path class="cls-2" d="M218.1,376.47c37.29,71.59-48.73,169.09-115.98,137.44-2.22-1.05-1.41-4.31,1.03-4.08,71.19,6.7,126.5-67.06,110.99-131.87-.58-2.44,2.79-3.72,3.95-1.49Z"/>
    <path class="cls-2" d="M146.49,272.27c19.61,27.61,50.16,33.76,70.89,41.81,1.72.67,3.03-1.56,1.63-2.76-15.89-13.7-50.02-25.98-70.21-41.28-1.48-1.12-3.39.72-2.32,2.23Z"/>
    <path class="cls-2" d="M237.55,81.82c-83.15-13.28-173.8,86.14-168.4,142.95,0,2.51-3.67,2.82-4.05.34-12.13-78.67,111.25-189.27,181.49-152.49,9.13,6.22.51,12.06-9.04,9.19Z"/>
    <path class="cls-2" d="M250.5,123.61c-.49-1.25-2.33-.76-2.15.56,5.98,44.04-27.29,63.7-27.79,64.65-11.62,9.57-1.92,21.12,6.38,14.86,28.75-23.62,32.05-58.29,23.56-80.07Z"/>
  </g>
  <g>
    <path class="cls-2" d="M634.23,492.73v-2.52c0-1.33.77-2.1,2.1-2.1h6.79c1.33,0,2.1.77,2.1,2.1v1.82c0,2.66.77,5.6,4.27,5.6,3.01,0,4.34-1.89,4.34-3.85v-.98c0-4.34-2.59-6.02-8.33-9.38-7-4.06-10.71-8.05-10.71-15.05s5.6-12.88,15.05-12.88,14.98,5.74,14.98,14.42v.42c0,1.33-.77,2.1-2.1,2.1h-6.79c-1.33,0-2.1-.77-2.1-2.1v-.98c0-2.59-1.47-4.69-3.99-4.69-2.66,0-4.2,1.05-4.2,3.71,0,2.94.56,4.76,7.28,8.82,6.44,3.85,11.83,7.56,11.83,15.61v.98c0,6.93-5.46,13.37-15.26,13.37-10.29,0-15.26-6.79-15.26-14.42Z"/>
    <path class="cls-2" d="M675.32,481.32c0-13.79,8.05-25.83,18.13-25.83s17.92,12.04,17.92,25.83-8.05,25.83-17.92,25.83-18.13-12.18-18.13-25.83ZM693.45,496.87c3.64,0,4.41-2.66,4.41-6.02v-19.11c0-3.36-.77-6.02-4.41-6.02s-4.55,2.66-4.55,6.02v19.11c0,3.36.77,6.02,4.55,6.02Z"/>
    <path class="cls-2" d="M723.27,503.66v-44.8c0-1.33.77-2.1,2.1-2.1h13.86c10.22,0,15.82,5.6,15.82,15.4v18.2c0,9.8-5.74,15.4-16.03,15.4h-13.65c-1.33,0-2.1-.77-2.1-2.1ZM739.16,495.96c3.78,0,4.62-2.73,4.62-6.16v-17.57c0-3.43-.84-6.16-4.62-6.16s-4.62,2.73-4.62,6.16v17.57c0,3.43.77,6.16,4.62,6.16Z"/>
    <path class="cls-2" d="M767.09,503.38l13.23-46.28c.35-1.19,1.12-1.75,2.31-1.75h6.37c1.19,0,1.96.49,2.31,1.75l13.09,46.28c.42,1.4-.28,2.38-1.75,2.38h-9.1c-1.33,0-2.1-.77-2.1-2.1v-1.54c0-4.62-1.47-6.16-5.67-6.16s-5.67,1.54-5.67,6.16v1.54c0,1.33-.77,2.1-2.1,2.1h-9.17c-1.47,0-2.17-.98-1.75-2.38ZM785.78,488.81c2.59,0,4.2-1.75,4.2-4.34v-1.05c0-2.59-1.61-4.34-4.2-4.34s-4.2,1.75-4.2,4.34v1.05c0,2.59,1.68,4.34,4.2,4.34Z"/>
    <path class="cls-2" d="M836.74,503.66v-44.8c0-1.33.77-2.1,2.1-2.1h7.07c1.33,0,2.1.77,2.1,2.1v30.17c0,2.8,2.17,5.95,4.97,5.95h4.13c1.33,0,2.1.77,2.1,2.1v6.58c0,1.33-.77,2.1-2.1,2.1h-18.27c-1.33,0-2.1-.77-2.1-2.1Z"/>
    <path class="cls-2" d="M869.15,503.38l13.23-46.28c.35-1.19,1.12-1.75,2.31-1.75h6.37c1.19,0,1.96.49,2.31,1.75l13.09,46.28c.42,1.4-.28,2.38-1.75,2.38h-9.1c-1.33,0-2.1-.77-2.1-2.1v-1.54c0-4.62-1.47-6.16-5.67-6.16s-5.67,1.54-5.67,6.16v1.54c0,1.33-.77,2.1-2.1,2.1h-9.17c-1.47,0-2.17-.98-1.75-2.38ZM887.84,488.81c2.59,0,4.2-1.75,4.2-4.34v-1.05c0-2.59-1.61-4.34-4.2-4.34s-4.2,1.75-4.2,4.34v1.05c0,2.59,1.68,4.34,4.2,4.34Z"/>
    <path class="cls-2" d="M918.5,503.66v-44.8c0-1.33.77-2.1,2.1-2.1h15.82c9.1,0,13.44,3.36,13.44,10.36v4.76c0,3.71-1.47,5.04-3.22,6.44-1.19.91-1.47,1.4-1.47,2.17,0,.84.28,1.33,1.47,2.24,1.75,1.4,3.22,2.66,3.22,6.37v6.3c0,7-4.34,10.36-13.44,10.36h-15.82c-1.33,0-2.1-.77-2.1-2.1ZM933.97,476.42c2.59,0,4.2-1.61,4.2-4.2v-3.92c0-2.52-1.61-4.2-4.2-4.2s-4.2,1.68-4.2,4.2v3.92c0,2.59,1.68,4.2,4.2,4.2ZM933.97,497.99c2.59,0,4.2-1.61,4.2-4.2v-4.13c0-2.52-1.61-4.2-4.2-4.2s-4.2,1.68-4.2,4.2v4.13c0,2.59,1.68,4.2,4.2,4.2Z"/>
  </g>
</svg>